<svg xmlns="http://www.w3.org/2000/svg" viewBox="0 0 400 300">
  <defs>
    <linearGradient id="bg" x1="0%" y1="0%" x2="100%" y2="100%">
      <stop offset="0%" stop-color="#fef9c3"/>
      <stop offset="100%" stop-color="#fef08a"/>
    </linearGradient>
  </defs>
  <rect width="400" height="300" fill="url(#bg)" rx="12"/>
  <!-- Ghẹ illustration -->
  <g transform="translate(100, 55)">
    <ellipse cx="100" cy="95" rx="82" ry="60" fill="#92400e"/>
    <ellipse cx="98" cy="90" rx="74" ry="52" fill="#a16207"/>
    <ellipse cx="95" cy="85" rx="64" ry="42" fill="#ca8a04"/>
    <path d="M55 80 Q100 55 145 80" stroke="#78350f" stroke-width="2" fill="none" opacity="0.4"/>
    <ellipse cx="70" cy="40" rx="10" ry="14" fill="#78350f"/>
    <ellipse cx="130" cy="40" rx="10" ry="14" fill="#78350f"/>
    <circle cx="70" cy="38" r="4" fill="#1f2937"/>
    <circle cx="130" cy="38" r="4" fill="#1f2937"/>
    <ellipse cx="28" cy="88" rx="24" ry="18" fill="#92400e"/>
    <ellipse cx="172" cy="88" rx="24" ry="18" fill="#92400e"/>
    <path d="M42 132 Q32 162 28 185" stroke="#78350f" stroke-width="7" fill="none" stroke-linecap="round"/>
    <path d="M65 138 Q55 168 52 192" stroke="#78350f" stroke-width="7" fill="none" stroke-linecap="round"/>
    <path d="M135 138 Q145 168 148 192" stroke="#78350f" stroke-width="7" fill="none" stroke-linecap="round"/>
    <path d="M158 132 Q168 162 172 185" stroke="#78350f" stroke-width="7" fill="none" stroke-linecap="round"/>
  </g>
</svg>
