<svg xmlns="http://www.w3.org/2000/svg" viewBox="0 0 400 300">
  <defs>
    <linearGradient id="bg" x1="0%" y1="0%" x2="100%" y2="100%">
      <stop offset="0%" stop-color="#f3e8ff"/>
      <stop offset="100%" stop-color="#d8b4fe"/>
    </linearGradient>
  </defs>
  <rect width="400" height="300" fill="url(#bg)" rx="12"/>
  <!-- Mực illustration -->
  <g transform="translate(110, 60)">
    <ellipse cx="90" cy="85" rx="50" ry="90" fill="#7c3aed"/>
    <ellipse cx="88" cy="82" rx="44" ry="82" fill="#8b5cf6"/>
    <ellipse cx="86" cy="78" rx="36" ry="70" fill="#a78bfa"/>
    <path d="M50 35 Q25 55 35 85 Q45 115 50 85 Q55 55 50 35" fill="#7c3aed"/>
    <path d="M130 35 Q155 55 145 85 Q135 115 130 85 Q125 55 130 35" fill="#7c3aed"/>
    <path d="M70 165 Q60 200 50 235" stroke="#7c3aed" stroke-width="5" fill="none" stroke-linecap="round"/>
    <path d="M100 170 Q100 215 95 255" stroke="#8b5cf6" stroke-width="4" fill="none" stroke-linecap="round"/>
    <path d="M130 165 Q140 200 150 235" stroke="#7c3aed" stroke-width="5" fill="none" stroke-linecap="round"/>
    <ellipse cx="72" cy="55" rx="10" ry="12" fill="white"/>
    <ellipse cx="72" cy="55" rx="7" ry="9" fill="#1e1b4b"/>
    <ellipse cx="108" cy="55" rx="10" ry="12" fill="white"/>
    <ellipse cx="108" cy="55" rx="7" ry="9" fill="#1e1b4b"/>
  </g>
</svg>
